{"title":"Peripheria HDTV 1080i by David Coquard-Dassault 2015 [Animation]","uid":14439593,"size":511958291,"categoryP":"video","categoryS":"hd___movies","magnet":"?xt=urn:btih:e1d2a28ad49c8cb755b11590124e1ba17108dd47&amp;dn=Peripheria+HDTV+1080i+by+David+Coquard-Dassault+2015+%5BAnimation%5D&amp;tr=udp%3A%2F%2Ftracker.leechers-paradise.org%3A6969&amp;tr=udp%3A%2F%2Fzer0day.ch%3A1337&amp;tr=udp%3A%2F%2Fopen.demonii.com%3A1337&amp;tr=udp%3A%2F%2Ftracker.coppersurfer.tk%3A6969&amp;tr=udp%3A%2F%2Fexodus.desync.com%3A6969","seeders":0,"leechers":0,"uploader":"Horisarte","files":1,"time":1461667856,"description":"http://i.imgur.com/RsTOuoe.png\r\n \nhttp://en.unifrance.org/movie/40678/peripheria\r\n\r\n\r\nGeneral\r\nUnique ID                                : 214453923465187382356289279748178677247 (0xA15652C3164DD075842E9559B3B78DFF)\r\nComplete name                            : [apreder]MM_Peripheria(2015)HDTV.1080i.mkv\r\nFormat                                   : Matroska\r\nFormat version                           : Version 2\r\nFile size                                : 488 MiB\r\nDuration                                 : 12mn 11s\r\nOverall bit rate                         : 5 597 Kbps\r\nMovie name                               : Peripheria\r\nReleased date                            : 2015-09-12\r\nEncoded date                             : UTC 2016-04-23 14:43:53\r\nWriting application                      : mkvmerge v9.0.1 ('Obstacles') 64bit\r\nWriting library                          : libebml v1.3.3 + libmatroska v1.4.4\r\nCover                                    : Yes\r\nAttachments                              : cover.jpg / cover_small.jpg\r\nDIRECTOR                                 : David Coquard-Dassault\r\nGENRE                                    : Animation, Short\r\nIMDB                                     : tt5029198\r\nKEYWORDS                                 : Animation\r\nLAW_RATING                               : 16+\r\n\r\nVideo\r\nID                                       : 1\r\nFormat                                   : AVC\r\nFormat/Info                              : Advanced Video Codec\r\nFormat profile                           :   \r\nFormat settings, CABAC                   : Yes\r\nFormat settings, ReFrames                : 4 frames\r\nCodec ID                                 : V_MPEG4/ISO/AVC\r\nDuration                                 : 12mn 11s\r\nBit rate                                 : 5 230 Kbps\r\nWidth                                    : 1 920 pixels\r\nHeight                                   : 1 080 pixels\r\nDisplay aspect ratio                     : 16:9\r\nFrame rate mode                          : Constant\r\nFrame rate                               : 25.000 fps\r\nStandard                                 : Component\r\nColor space                              : YUV\r\nChroma subsampling                       : 4:2:0\r\nBit depth                                : 8 bits\r\nScan type                                : Interlaced\r\nScan type, store method                  : Separated fields\r\nScan order                               : Top Field First\r\nBits/(Pixel*Frame)                       : 0.101\r\nStream size                              : 456 MiB (93%)\r\nDefault                                  : Yes\r\nForced                                   : No\r\nColor range                              : Limited\r\nColor primaries                          : BT.601 PAL\r\nTransfer characteristics                 : BT.470 System B, BT.470 System G\r\nMatrix coefficients                      : BT.601\r\n\r\nAudio\r\nID                                       : 2\r\nFormat                                   : AC-3\r\nFormat/Info                              : Audio Coding 3\r\nMode extension                           : CM (complete main)\r\nFormat settings, Endianness              : Big\r\nCodec ID                                 : A_AC3\r\nDuration                                 : 12mn 11s\r\nBit rate mode                            : Constant\r\nBit rate                                 : 256 Kbps\r\nChannel(s)                               : 2 channels\r\nChannel positions                        : Front: L R\r\nSampling rate                            : 48.0 KHz\r\nFrame rate                               : 31.250 fps (1536 spf)\r\nCompression mode                         : Lossy\r\nStream size                              : 22.3 MiB (5%)\r\nDefault                                  : Yes\r\nForced                                   : No\r\n \nhttp://www.jaredmobarak.com/2015/09/07/peripheria/\r\n\r\nSCREENS:\r\n \nhttps://imgur.com/a/MYeZu","torrent":{"xt":"urn:btih:e1d2a28ad49c8cb755b11590124e1ba17108dd47","amp;dn":"Peripheria+HDTV+1080i+by+David+Coquard-Dassault+2015+%5BAnimation%5D","amp;tr":["udp%3A%2F%2Ftracker.leechers-paradise.org%3A6969","udp%3A%2F%2Fzer0day.ch%3A1337","udp%3A%2F%2Fopen.demonii.com%3A1337","udp%3A%2F%2Ftracker.coppersurfer.tk%3A6969","udp%3A%2F%2Fexodus.desync.com%3A6969"],"infoHash":"e1d2a28ad49c8cb755b11590124e1ba17108dd47","infoHashBuffer":{"type":"Buffer","data":[225,210,162,138,212,156,140,183,85,177,21,144,18,78,27,161,113,8,221,71]},"announce":[],"urlList":[]}}